<?xml version="1.0" encoding="iso-8859-1"?>
<!-- Generator: Adobe Illustrator 19.0.0, SVG Export Plug-In . SVG Version: 6.00 Build 0)  -->
<svg version="1.1" id="Layer_1" xmlns="http://www.w3.org/2000/svg" xmlns:xlink="http://www.w3.org/1999/xlink" x="0px" y="0px"
	 viewBox="0 0 512 512" style="enable-background:new 0 0 512 512;" xml:space="preserve">
<circle style="fill:#FEE187;" cx="256" cy="256" r="256"/>
<path style="fill:#FFC61B;" d="M331.902,500.558c88.261-27.364,156.086-101.188,174.88-192.886l-80.115-80.117l-41.086,24.997
	l-17.239-1.436l-46.821,8.737l-67.636-67.637l-49.378,8.397l-0.796,53.663l-76.293,41.794L331.902,500.558z"/>
<rect x="170.667" y="199.111" style="fill:#B54324;" width="85.333" height="56.889"/>
<path style="fill:#FF7F4F;" d="M113.778,199.111v61.918c0,28.643,23.219,51.86,51.862,51.86h261.027v-85.333H185.32L113.778,199.111
	z"/>
<polygon style="fill:#D35933;" points="426.667,227.556 185.32,227.556 184.172,227.099 184.172,312.889 426.667,312.889 "/>
<ellipse style="fill:#B54324;" cx="184.889" cy="199.111" rx="71.111" ry="28.444"/>
<path style="fill:#993119;" d="M184.889,170.667c-0.241,0-0.478,0.007-0.717,0.007v56.875c0.24,0,0.478,0.007,0.717,0.007
	c39.274,0,71.111-12.734,71.111-28.444S224.163,170.667,184.889,170.667z"/>
<ellipse style="fill:#930000;" cx="184.889" cy="199.111" rx="17.239" ry="6.896"/>
<path style="fill:#770000;" d="M184.889,192.215c-0.243,0-0.478,0.01-0.717,0.014v13.762c0.24,0.003,0.476,0.014,0.717,0.014
	c9.521,0,17.239-3.088,17.239-6.896C202.128,195.303,194.41,192.215,184.889,192.215z"/>
<g>
	<rect x="207.3" y="284.444" style="fill:#930000;" width="12.067" height="28.444"/>
	<rect x="284.444" y="284.444" style="fill:#930000;" width="12.067" height="28.444"/>
	<rect x="369.778" y="284.444" style="fill:#930000;" width="12.067" height="28.444"/>
	<rect x="243.933" y="256" style="fill:#930000;" width="12.067" height="56.889"/>
	<rect x="170.667" y="256" style="fill:#930000;" width="12.067" height="56.889"/>
</g>
<rect x="414.599" y="227.556" style="fill:#59595B;" width="12.067" height="85.333"/>
<rect x="329.266" y="256" style="fill:#930000;" width="12.067" height="56.889"/>
<g>
</g>
<g>
</g>
<g>
</g>
<g>
</g>
<g>
</g>
<g>
</g>
<g>
</g>
<g>
</g>
<g>
</g>
<g>
</g>
<g>
</g>
<g>
</g>
<g>
</g>
<g>
</g>
<g>
</g>
</svg>
