<svg xmlns="http://www.w3.org/2000/svg" height="512pt" version="1.1" viewBox="-5 0 512 512.00002" width="512pt">
<g id="surface1">
<path d="M 501.59375 261.203125 C 501.59375 399.714844 389.308594 512 250.796875 512 C 112.285156 512 0 399.714844 0 261.203125 C 0 122.691406 112.285156 10.40625 250.796875 10.40625 C 389.308594 10.40625 501.59375 122.691406 501.59375 261.203125 Z M 501.59375 261.203125 " style=" stroke:none;fill-rule:nonzero;fill:rgb(6.27451%,29.019608%,48.627451%);fill-opacity:1;" />
<path d="M 361.40625 16.714844 L 428.488281 16.714844 L 428.488281 411.449219 L 361.40625 411.449219 Z M 361.40625 16.714844 " style=" stroke:none;fill-rule:nonzero;fill:rgb(37.647059%,37.647059%,95.686275%);fill-opacity:1;" />
<path d="M 73.105469 315.652344 L 140.183594 315.652344 L 140.183594 411.449219 L 73.105469 411.449219 Z M 73.105469 315.652344 " style=" stroke:none;fill-rule:nonzero;fill:rgb(95.686275%,78.039216%,34.509804%);fill-opacity:1;" />
<path d="M 169.203125 216.007812 L 236.285156 216.007812 L 236.285156 411.449219 L 169.203125 411.449219 Z M 169.203125 216.007812 " style=" stroke:none;fill-rule:nonzero;fill:rgb(95.686275%,41.176471%,41.176471%);fill-opacity:1;" />
<path d="M 265.304688 116.359375 L 332.386719 116.359375 L 332.386719 411.449219 L 265.304688 411.449219 Z M 265.304688 116.359375 " style=" stroke:none;fill-rule:nonzero;fill:rgb(96.862745%,32.941176%,69.411765%);fill-opacity:1;" />
<path d="M 140.1875 315.652344 C 140.1875 306.421875 125.167969 298.9375 106.644531 298.9375 C 88.121094 298.9375 73.105469 306.421875 73.105469 315.652344 C 73.105469 324.882812 88.121094 332.367188 106.644531 332.367188 C 125.167969 332.367188 140.1875 324.882812 140.1875 315.652344 Z M 140.1875 315.652344 " style=" stroke:none;fill-rule:nonzero;fill:rgb(96.862745%,87.45098%,60.392157%);fill-opacity:1;" />
<path d="M 332.386719 116.359375 C 332.386719 107.128906 317.371094 99.644531 298.84375 99.644531 C 280.320312 99.644531 265.304688 107.128906 265.304688 116.359375 C 265.304688 125.589844 280.320312 133.074219 298.84375 133.074219 C 317.371094 133.074219 332.386719 125.589844 332.386719 116.359375 Z M 332.386719 116.359375 " style=" stroke:none;fill-rule:nonzero;fill:rgb(98.823529%,52.54902%,74.901961%);fill-opacity:1;" />
<path d="M 428.484375 16.714844 C 428.484375 7.484375 413.46875 0 394.945312 0 C 376.421875 0 361.402344 7.484375 361.402344 16.714844 C 361.402344 25.945312 376.421875 33.429688 394.945312 33.429688 C 413.46875 33.429688 428.484375 25.945312 428.484375 16.714844 Z M 428.484375 16.714844 " style=" stroke:none;fill-rule:nonzero;fill:rgb(53.333333%,49.411765%,100%);fill-opacity:1;" />
<path d="M 236.285156 216.007812 C 236.285156 206.773438 221.269531 199.292969 202.746094 199.292969 C 184.222656 199.292969 169.203125 206.773438 169.203125 216.007812 C 169.203125 225.238281 184.222656 232.71875 202.746094 232.71875 C 221.269531 232.71875 236.285156 225.238281 236.285156 216.007812 Z M 236.285156 216.007812 " style=" stroke:none;fill-rule:nonzero;fill:rgb(98.431373%,56.862745%,54.117647%);fill-opacity:1;" />
<path d="M 106.644531 371.367188 C 88.121094 371.367188 73.105469 363.882812 73.105469 354.652344 L 73.105469 411.449219 L 140.1875 411.449219 L 140.1875 354.652344 C 140.1875 363.882812 125.167969 371.367188 106.644531 371.367188 Z M 106.644531 371.367188 " style=" stroke:none;fill-rule:nonzero;fill:rgb(91.764706%,70.196078%,22.352941%);fill-opacity:1;" />
<path d="M 394.945312 371.367188 C 376.421875 371.367188 361.402344 363.882812 361.402344 354.652344 L 361.402344 411.449219 L 428.484375 411.449219 L 428.484375 354.652344 C 428.484375 363.882812 413.46875 371.367188 394.945312 371.367188 Z M 394.945312 371.367188 " style=" stroke:none;fill-rule:nonzero;fill:rgb(29.803922%,29.803922%,92.941176%);fill-opacity:1;" />
<path d="M 298.84375 371.367188 C 280.320312 371.367188 265.304688 363.882812 265.304688 354.652344 L 265.304688 411.449219 L 332.386719 411.449219 L 332.386719 354.652344 C 332.386719 363.882812 317.367188 371.367188 298.84375 371.367188 Z M 298.84375 371.367188 " style=" stroke:none;fill-rule:nonzero;fill:rgb(94.901961%,25.098039%,68.235294%);fill-opacity:1;" />
<path d="M 202.746094 371.367188 C 184.222656 371.367188 169.203125 363.882812 169.203125 354.652344 L 169.203125 411.449219 L 236.285156 411.449219 L 236.285156 354.652344 C 236.285156 363.882812 221.269531 371.367188 202.746094 371.367188 Z M 202.746094 371.367188 " style=" stroke:none;fill-rule:nonzero;fill:rgb(91.764706%,32.941176%,32.941176%);fill-opacity:1;" />
<path d="M 49.996094 411.484375 C 150.410156 545.4375 351.105469 545.539062 451.59375 411.484375 Z M 49.996094 411.484375 " style=" stroke:none;fill-rule:nonzero;fill:rgb(4.705882%,22.745098%,42.745098%);fill-opacity:1;" />
<path d="M 227.222656 464.730469 C 227.222656 437.171875 248.023438 414.484375 274.78125 411.484375 L 49.996094 411.484375 C 97.253906 474.523438 172.460938 513.464844 255.464844 511.953125 C 238.652344 502.910156 227.222656 485.15625 227.222656 464.730469 Z M 227.222656 464.730469 " style=" stroke:none;fill-rule:nonzero;fill:rgb(2.745098%,16.470588%,36.862745%);fill-opacity:1;" />
<path d="M 106.648438 438.277344 C 102.351562 438.277344 98.867188 434.792969 98.867188 430.496094 L 98.867188 411.484375 C 98.867188 407.191406 102.351562 403.707031 106.648438 403.707031 C 110.941406 403.707031 114.425781 407.191406 114.425781 411.484375 L 114.425781 430.496094 C 114.425781 434.792969 110.941406 438.277344 106.648438 438.277344 Z M 106.648438 438.277344 " style=" stroke:none;fill-rule:nonzero;fill:rgb(20.784314%,55.686275%,72.941176%);fill-opacity:1;" />
<path d="M 202.746094 438.277344 C 198.449219 438.277344 194.96875 434.792969 194.96875 430.496094 L 194.96875 411.484375 C 194.96875 407.191406 198.449219 403.707031 202.746094 403.707031 C 207.042969 403.707031 210.523438 407.191406 210.523438 411.484375 L 210.523438 430.496094 C 210.523438 434.792969 207.042969 438.277344 202.746094 438.277344 Z M 202.746094 438.277344 " style=" stroke:none;fill-rule:nonzero;fill:rgb(20.784314%,55.686275%,72.941176%);fill-opacity:1;" />
<path d="M 298.847656 438.277344 C 294.550781 438.277344 291.070312 434.792969 291.070312 430.496094 L 291.070312 411.484375 C 291.070312 407.191406 294.550781 403.707031 298.847656 403.707031 C 303.144531 403.707031 306.625 407.191406 306.625 411.484375 L 306.625 430.496094 C 306.625 434.792969 303.144531 438.277344 298.847656 438.277344 Z M 298.847656 438.277344 " style=" stroke:none;fill-rule:nonzero;fill:rgb(24.313725%,64.313725%,80%);fill-opacity:1;" />
<path d="M 394.945312 438.277344 C 390.652344 438.277344 387.167969 434.792969 387.167969 430.496094 L 387.167969 411.484375 C 387.167969 407.191406 390.652344 403.707031 394.945312 403.707031 C 399.242188 403.707031 402.726562 407.191406 402.726562 411.484375 L 402.726562 430.496094 C 402.726562 434.792969 399.242188 438.277344 394.945312 438.277344 Z M 394.945312 438.277344 " style=" stroke:none;fill-rule:nonzero;fill:rgb(24.313725%,64.313725%,80%);fill-opacity:1;" />
<path d="M 106.644531 462.925781 C 102.351562 462.925781 98.867188 459.441406 98.867188 455.144531 L 98.867188 454.984375 C 98.867188 450.691406 102.347656 447.207031 106.644531 447.207031 C 110.941406 447.207031 114.421875 450.691406 114.421875 454.984375 L 114.421875 455.144531 C 114.421875 459.441406 110.941406 462.925781 106.644531 462.925781 Z M 106.644531 462.925781 " style=" stroke:none;fill-rule:nonzero;fill:rgb(20.784314%,55.686275%,72.941176%);fill-opacity:1;" />
<path d="M 202.746094 462.925781 C 198.449219 462.925781 194.96875 459.441406 194.96875 455.144531 L 194.96875 454.984375 C 194.96875 450.691406 198.449219 447.207031 202.746094 447.207031 C 207.039062 447.207031 210.523438 450.691406 210.523438 454.984375 L 210.523438 455.144531 C 210.523438 459.441406 207.039062 462.925781 202.746094 462.925781 Z M 202.746094 462.925781 " style=" stroke:none;fill-rule:nonzero;fill:rgb(20.784314%,55.686275%,72.941176%);fill-opacity:1;" />
<path d="M 298.84375 462.925781 C 294.550781 462.925781 291.066406 459.441406 291.066406 455.144531 L 291.066406 454.984375 C 291.066406 450.691406 294.550781 447.207031 298.84375 447.207031 C 303.140625 447.207031 306.621094 450.691406 306.621094 454.984375 L 306.621094 455.144531 C 306.621094 459.441406 303.140625 462.925781 298.84375 462.925781 Z M 298.84375 462.925781 " style=" stroke:none;fill-rule:nonzero;fill:rgb(24.313725%,64.313725%,80%);fill-opacity:1;" />
<path d="M 394.945312 462.925781 C 390.648438 462.925781 387.167969 459.441406 387.167969 455.144531 L 387.167969 454.984375 C 387.167969 450.691406 390.648438 447.207031 394.945312 447.207031 C 399.242188 447.207031 402.722656 450.691406 402.722656 454.984375 L 402.722656 455.144531 C 402.722656 459.441406 399.242188 462.925781 394.945312 462.925781 Z M 394.945312 462.925781 " style=" stroke:none;fill-rule:nonzero;fill:rgb(24.313725%,64.313725%,80%);fill-opacity:1;" />
<path d="M 457.179688 403.707031 L 44.414062 403.707031 C 48.105469 409.046875 52 414.238281 56.085938 419.265625 L 445.507812 419.265625 C 449.59375 414.234375 453.484375 409.046875 457.179688 403.707031 Z M 457.179688 403.707031 " style=" stroke:none;fill-rule:nonzero;fill:rgb(20.784314%,55.686275%,72.941176%);fill-opacity:1;" />
<path d="M 252.082031 403.707031 L 44.414062 403.707031 C 48.105469 409.046875 52 414.238281 56.085938 419.265625 L 252.082031 419.265625 C 245.378906 416.242188 245.378906 406.730469 252.082031 403.707031 Z M 252.082031 403.707031 " style=" stroke:none;fill-rule:nonzero;fill:rgb(13.72549%,42.352941%,60.784314%);fill-opacity:1;" />
</g>
</svg>