<?xml version="1.0" encoding="iso-8859-1"?>
<!-- Generator: Adobe Illustrator 19.0.0, SVG Export Plug-In . SVG Version: 6.00 Build 0)  -->
<svg version="1.1" id="Capa_1" xmlns="http://www.w3.org/2000/svg" xmlns:xlink="http://www.w3.org/1999/xlink" x="0px" y="0px"
	 viewBox="0 0 512 512" style="enable-background:new 0 0 512 512;" xml:space="preserve">
<circle style="fill:#FFDC00;" cx="256" cy="256" r="256"/>
<path style="fill:#FFC000;" d="M512,256c0-8.33-0.412-16.563-1.19-24.69L356.5,77l-201,352.333l81.996,81.996
	C243.608,511.766,249.776,512,256,512C397.385,512,512,397.385,512,256z"/>
<rect x="155.5" y="77" style="fill:#333333;" width="201" height="352.33"/>
<rect x="255.67" y="77" style="fill:#1A1A1A;" width="100.83" height="352.33"/>
<rect x="172" y="101.5" style="fill:#FF6838;" width="168" height="282"/>
<rect x="172" y="101.5" style="fill:#FFB344;" width="168" height="282"/>
<rect x="255.67" y="101.5" style="fill:#FF9451;" width="84.33" height="282"/>
<rect x="206.81" y="159.92" style="fill:#FFFFFF;" width="49.19" height="165.15"/>
<rect x="206.81" y="241" style="fill:#E0E0E0;" width="49.19" height="84.08"/>
<circle style="fill:#1A1A1A;" cx="256" cy="404.5" r="12.5"/>
<path d="M256,392c-0.113,0-0.221,0.014-0.333,0.017v24.966c0.112,0.003,0.221,0.017,0.333,0.017c6.904,0,12.5-5.596,12.5-12.5
	S262.904,392,256,392z"/>
<polygon style="fill:#0074A3;" points="302.833,169.685 280.522,191.995 315.019,226.491 206.806,226.496 206.807,258.048 
	314.869,258.043 279.908,293.005 302.219,315.315 375.341,242.192 "/>
<polygon style="fill:#005C83;" points="206.806,242.192 206.807,258.048 314.869,258.043 279.908,293.005 302.219,315.315 
	375.341,242.192 "/>
<g>
</g>
<g>
</g>
<g>
</g>
<g>
</g>
<g>
</g>
<g>
</g>
<g>
</g>
<g>
</g>
<g>
</g>
<g>
</g>
<g>
</g>
<g>
</g>
<g>
</g>
<g>
</g>
<g>
</g>
</svg>
