<svg height="511pt" viewBox="1 -86 511.99998 511" width="511pt" xmlns="http://www.w3.org/2000/svg"><path d="m474.230469.5h-436.460938c-20.859375 0-37.769531 16.910156-37.769531 37.769531v263.007813c0 20.859375 16.910156 37.769531 37.769531 37.769531h436.460938c20.859375 0 37.769531-16.910156 37.769531-37.769531v-263.007813c0-20.859375-16.910156-37.769531-37.769531-37.769531zm0 0" fill="#f7d360"/><path d="m44.933594 63.195312h181.8125v206.886719h-181.8125zm0 0" fill="#fff"/><g fill="#e6e6e6"><path d="m469.164062 89.203125h-196.441406c-4.328125 0-7.835937-3.507813-7.835937-7.835937 0-4.328126 3.507812-7.835938 7.835937-7.835938h196.441406c4.328126 0 7.835938 3.507812 7.835938 7.835938 0 4.328124-3.507812 7.835937-7.835938 7.835937zm0 0"/><path d="m469.164062 146.050781h-196.441406c-4.328125 0-7.835937-3.507812-7.835937-7.835937s3.507812-7.835938 7.835937-7.835938h196.441406c4.328126 0 7.835938 3.507813 7.835938 7.835938s-3.507812 7.835937-7.835938 7.835937zm0 0"/><path d="m469.164062 202.898438h-196.441406c-4.328125 0-7.835937-3.507813-7.835937-7.835938s3.507812-7.835938 7.835937-7.835938h196.441406c4.328126 0 7.835938 3.507813 7.835938 7.835938s-3.507812 7.835938-7.835938 7.835938zm0 0"/><path d="m379.300781 259.75h-106.578125c-4.328125 0-7.835937-3.511719-7.835937-7.839844s3.507812-7.835937 7.835937-7.835937h106.578125c4.328125 0 7.835938 3.507812 7.835938 7.835937s-3.507813 7.839844-7.835938 7.839844zm0 0"/></g><path d="m182.859375 150.964844c0 25.96875-21.050781 47.019531-47.019531 47.019531s-47.019532-21.050781-47.019532-47.019531 21.050782-47.019532 47.019532-47.019532 47.019531 21.050782 47.019531 47.019532zm0 0" fill="#e8cdac"/><path d="m182.859375 245.003906c0-25.96875-21.050781-47.019531-47.019531-47.019531s-47.019532 21.050781-47.019532 47.019531" fill="#fc5f61"/></svg>