<?xml version="1.0" encoding="iso-8859-1"?>
<!-- Generator: Adobe Illustrator 19.0.0, SVG Export Plug-In . SVG Version: 6.00 Build 0)  -->
<svg version="1.1" id="Capa_1" xmlns="http://www.w3.org/2000/svg" xmlns:xlink="http://www.w3.org/1999/xlink" x="0px" y="0px"
	 viewBox="0 0 512 512" style="enable-background:new 0 0 512 512;" xml:space="preserve">
<circle style="fill:#FFAF10;" cx="256" cy="256" r="245"/>
<path style="fill:#EEF6FF;" d="M354.606,341.755c0-2.206,1.794-4,4-4h115.043V123.212H149.543v10.027
	c0,1.425-1.159,2.584-2.584,2.584H38.351v232.751c17.944,34.624,43.902,64.423,75.426,86.936h240.83V341.755H354.606z"/>
<path style="fill:#D9EAFC;" d="M38.351,135.823v232.751c5.801,11.192,12.45,21.871,19.843,31.972V135.823H38.351z"/>
<path style="fill:#293D7C;" d="M463.135,69.011H149.543v55.201h324.106V79.525C473.649,73.742,468.918,69.011,463.135,69.011z"/>
<path style="fill:#AEC1ED;" d="M448.415,102.411H423.18c-4.143,0-7.5-3.357-7.5-7.5s3.357-7.5,7.5-7.5h25.235
	c4.143,0,7.5,3.357,7.5,7.5C455.915,99.054,452.558,102.411,448.415,102.411z"/>
<path style="fill:#FFFFFF;" d="M437.009,204.303c0,2.587-2.115,4.701-4.701,4.701H79.692c-2.584,0-4.701-2.114-4.701-4.701v-47.016
	c0-2.584,2.117-4.701,4.701-4.701h352.615c2.586,0,4.701,2.117,4.701,4.701v47.016H437.009z"/>
<path style="fill:#EEF6FF;" d="M94.834,204.303v-47.016c0-2.584,2.117-4.701,4.701-4.701H79.692c-2.584,0-4.701,2.117-4.701,4.701
	v47.016c0,2.587,2.117,4.701,4.701,4.701h19.843C96.951,209.004,94.834,206.89,94.834,204.303z"/>
<path style="fill:#FF9518;" d="M432.308,152.586h-64.087v56.418h64.087c2.586,0,4.701-2.114,4.701-4.701v-47.016
	C437.009,154.703,434.894,152.586,432.308,152.586z"/>
<path style="fill:#52BBEF;" d="M512,496c0,2.75-2.25,5-5,5H358.606c-2.75,0-5-2.25-5-5V341.755c0-2.75,2.25-5,5-5H507
	c2.75,0,5,2.25,5,5V496z"/>
<g>
	<path style="fill:#1E99D6;" d="M373.449,496V341.755c0-2.75,2.25-5,5-5h-19.843c-2.75,0-5,2.25-5,5V496c0,2.75,2.25,5,5,5h19.843
		C375.699,501,373.449,498.75,373.449,496z"/>
	<path style="fill:#1E99D6;" d="M473.241,384.728h-80.875c-4.143,0-7.5-3.357-7.5-7.5s3.357-7.5,7.5-7.5h80.875
		c4.143,0,7.5,3.357,7.5,7.5C480.741,381.37,477.384,384.728,473.241,384.728z"/>
	<path style="fill:#1E99D6;" d="M473.241,411.025h-80.875c-4.143,0-7.5-3.357-7.5-7.5s3.357-7.5,7.5-7.5h80.875
		c4.143,0,7.5,3.357,7.5,7.5S477.384,411.025,473.241,411.025z"/>
	<path style="fill:#1E99D6;" d="M473.241,437.324h-80.875c-4.143,0-7.5-3.357-7.5-7.5s3.357-7.5,7.5-7.5h80.875
		c4.143,0,7.5,3.357,7.5,7.5S477.384,437.324,473.241,437.324z"/>
	<path style="fill:#1E99D6;" d="M432.966,463.621h-40.6c-4.143,0-7.5-3.357-7.5-7.5s3.357-7.5,7.5-7.5h40.6
		c4.143,0,7.5,3.357,7.5,7.5S437.108,463.621,432.966,463.621z"/>
</g>
<g>
	<path style="fill:#52BBEF;" d="M148.323,279.108c0,2.75-2.25,5-5,5h-43.235c-2.75,0-5-2.25-5-5v-43.235c0-2.75,2.25-5,5-5h43.235
		c2.75,0,5,2.25,5,5V279.108z"/>
	<path style="fill:#52BBEF;" d="M325.466,253.002h-153.51c-4.143,0-7.5-3.357-7.5-7.5s3.357-7.5,7.5-7.5h153.51
		c4.143,0,7.5,3.357,7.5,7.5S329.608,253.002,325.466,253.002z"/>
	<path style="fill:#52BBEF;" d="M276.457,276.982H171.956c-4.143,0-7.5-3.357-7.5-7.5s3.357-7.5,7.5-7.5h104.501
		c4.143,0,7.5,3.357,7.5,7.5S280.6,276.982,276.457,276.982z"/>
</g>
<g>
	<path style="fill:#02AF8E;" d="M148.323,346.611c0,2.75-2.25,5-5,5h-43.235c-2.75,0-5-2.25-5-5v-43.236c0-2.75,2.25-5,5-5h43.235
		c2.75,0,5,2.25,5,5V346.611z"/>
	<path style="fill:#02AF8E;" d="M325.466,320.504h-153.51c-4.143,0-7.5-3.357-7.5-7.5s3.357-7.5,7.5-7.5h153.51
		c4.143,0,7.5,3.357,7.5,7.5S329.608,320.504,325.466,320.504z"/>
	<path style="fill:#02AF8E;" d="M276.457,344.484H171.956c-4.143,0-7.5-3.357-7.5-7.5s3.357-7.5,7.5-7.5h104.501
		c4.143,0,7.5,3.357,7.5,7.5S280.6,344.484,276.457,344.484z"/>
</g>
<path style="fill:#FF9518;" d="M148.323,414.113c0,2.75-2.25,5-5,5h-43.235c-2.75,0-5-2.25-5-5v-43.235c0-2.75,2.25-5,5-5h43.235
	c2.75,0,5,2.25,5,5V414.113z"/>
<path style="fill:#1E99D6;" d="M114.931,279.108v-43.235c0-2.75,2.25-5,5-5h-19.843c-2.75,0-5,2.25-5,5v43.235c0,2.75,2.25,5,5,5
	h19.843C117.181,284.108,114.931,281.858,114.931,279.108z"/>
<path style="fill:#0F9390;" d="M114.931,346.611v-43.236c0-2.75,2.25-5,5-5h-19.843c-2.75,0-5,2.25-5,5v43.236c0,2.75,2.25,5,5,5
	h19.843C117.181,351.611,114.931,349.361,114.931,346.611z"/>
<path style="fill:#EF8318;" d="M114.931,414.113v-43.235c0-2.75,2.25-5,5-5h-19.843c-2.75,0-5,2.25-5,5v43.235c0,2.75,2.25,5,5,5
	h19.843C117.181,419.113,114.931,416.863,114.931,414.113z"/>
<g>
	<path style="fill:#FF9518;" d="M325.466,388.006h-153.51c-4.143,0-7.5-3.357-7.5-7.5s3.357-7.5,7.5-7.5h153.51
		c4.143,0,7.5,3.357,7.5,7.5C332.966,384.648,329.608,388.006,325.466,388.006z"/>
	<path style="fill:#FF9518;" d="M276.457,411.986H171.956c-4.143,0-7.5-3.357-7.5-7.5c0-4.142,3.357-7.5,7.5-7.5h104.501
		c4.143,0,7.5,3.358,7.5,7.5C283.957,408.629,280.6,411.986,276.457,411.986z"/>
</g>
<circle style="fill:#91E0E8;" cx="389.11" cy="262.77" r="25.97"/>
<path style="fill:#5DC1D8;" d="M390.587,281.13c-10.141-10.142-10.141-26.585,0-36.728c2.495-2.494,5.372-4.372,8.442-5.64
	c-9.409-3.884-20.638-2.007-28.285,5.64c-10.141,10.143-10.141,26.586,0,36.728c7.647,7.646,18.876,9.524,28.285,5.64
	C395.959,285.502,393.082,283.625,390.587,281.13z"/>
<path style="fill:#1A2B63;" d="M437.147,300.2l-19.676-19.677c8.088-12.919,6.528-30.197-4.697-41.425
	c-6.321-6.32-14.726-9.802-23.666-9.802s-17.345,3.481-23.668,9.803c-13.048,13.051-13.048,34.284,0.001,47.334
	c6.321,6.321,14.727,9.803,23.667,9.803c6.384,0,12.489-1.783,17.763-5.1l19.669,19.669c1.465,1.465,3.384,2.197,5.304,2.197
	c1.919,0,3.839-0.732,5.303-2.196C440.076,307.878,440.076,303.129,437.147,300.2z M376.048,275.827
	c-7.201-7.202-7.201-18.92-0.001-26.121c3.489-3.488,8.128-5.409,13.061-5.409s9.572,1.921,13.06,5.408
	c7.201,7.202,7.201,18.92,0,26.121c-3.488,3.489-8.126,5.41-13.06,5.41S379.536,279.315,376.048,275.827z"/>
<path style="fill:#91E0E8;" d="M0,133.239c0,1.972,1.613,3.584,3.584,3.584h143.375c1.971,0,3.584-1.612,3.584-3.584v-96.06
	c0-1.971-1.613-3.584-3.584-3.584H3.584C1.613,33.595,0,35.208,0,37.179V133.239z"/>
<path style="fill:#5DC1D8;" d="M19.843,133.239v-96.06c0-1.971,1.613-3.584,3.584-3.584H3.584C1.613,33.595,0,35.208,0,37.179
	v96.061c0,1.972,1.613,3.584,3.584,3.584h19.843C21.456,136.823,19.843,135.211,19.843,133.239z"/>
<path style="fill:#37C47A;" d="M34.383,89.721c1.271-1.506,3.349-1.506,4.62,0l18.635,22.109c1.271,1.506,3.349,1.506,4.62,0
	L97.432,70.1c1.271-1.506,3.349-1.506,4.62,0l48.491,57.529v5.61c0,1.972-1.613,3.584-3.584,3.584H3.584
	c-1.971,0-3.584-1.612-3.584-3.584v-2.73L34.383,89.721z"/>
<circle style="fill:#FFFFFF;" cx="130.34" cy="52.39" r="10.753"/>
<g>
</g>
<g>
</g>
<g>
</g>
<g>
</g>
<g>
</g>
<g>
</g>
<g>
</g>
<g>
</g>
<g>
</g>
<g>
</g>
<g>
</g>
<g>
</g>
<g>
</g>
<g>
</g>
<g>
</g>
</svg>
