<?xml version="1.0" encoding="iso-8859-1"?>
<!-- Generator: Adobe Illustrator 19.0.0, SVG Export Plug-In . SVG Version: 6.00 Build 0)  -->
<svg version="1.1" id="Layer_1" xmlns="http://www.w3.org/2000/svg" xmlns:xlink="http://www.w3.org/1999/xlink" x="0px" y="0px"
	 viewBox="0 0 512 512" style="enable-background:new 0 0 512 512;" xml:space="preserve">
<circle style="fill:#FFC61B;" cx="256" cy="256" r="256"/>
<path style="fill:#EAA22F;" d="M292.633,509.38c110.663-15.858,198.47-102.479,216.112-212.556L363.31,151.388l-42.089,83.637
	l19.827,19.827l-19.311,1.926L216.347,151.388L176.7,217.5l37.838,37.838L67.543,267.885l88.797,88.797l-11.567,4.839
	L292.633,509.38z"/>
<path style="fill:#808183;" d="M427.529,276.687H84.471c-11.424,0-20.687-9.263-20.687-20.687l0,0
	c0-11.424,9.263-20.687,20.687-20.687h343.057c11.424,0,20.687,9.263,20.687,20.687l0,0
	C448.215,267.424,438.953,276.687,427.529,276.687z"/>
<path style="fill:#59595B;" d="M63.871,254.276c-0.047,0.571-0.088,1.141-0.088,1.724c0,11.424,9.263,20.687,20.687,20.687h343.057
	c11.424,0,20.687-9.263,20.687-20.687c0-0.583-0.04-1.153-0.088-1.724H63.871z"/>
<g>
	<path style="fill:#383535;" d="M196.31,369.778h-32.323c-14.638,0-26.505-11.867-26.505-26.505V168.727
		c0-14.638,11.867-26.505,26.505-26.505h32.323c14.638,0,26.505,11.867,26.505,26.505v174.545
		C222.815,357.91,210.947,369.778,196.31,369.778z"/>
	<path style="fill:#383535;" d="M343.273,369.778h-32.323c-14.638,0-26.505-11.867-26.505-26.505V168.727
		c0-14.638,11.867-26.505,26.505-26.505h32.323c14.638,0,26.505,11.867,26.505,26.505v174.545
		C369.778,357.91,357.91,369.778,343.273,369.778z"/>
</g>
<g>
	<path style="fill:#272525;" d="M137.481,254.276v88.997c0,14.638,11.867,26.505,26.505,26.505h32.323
		c14.639,0,26.505-11.867,26.505-26.505v-88.997H137.481z"/>
	<path style="fill:#272525;" d="M284.444,254.276v88.997c0,14.638,11.867,26.505,26.505,26.505h32.323
		c14.639,0,26.505-11.867,26.505-26.505v-88.997H284.444z"/>
</g>
<g>
</g>
<g>
</g>
<g>
</g>
<g>
</g>
<g>
</g>
<g>
</g>
<g>
</g>
<g>
</g>
<g>
</g>
<g>
</g>
<g>
</g>
<g>
</g>
<g>
</g>
<g>
</g>
<g>
</g>
</svg>
