<?xml version="1.0" encoding="iso-8859-1"?>
<!-- Generator: Adobe Illustrator 19.0.0, SVG Export Plug-In . SVG Version: 6.00 Build 0)  -->
<svg version="1.1" id="Layer_1" xmlns="http://www.w3.org/2000/svg" xmlns:xlink="http://www.w3.org/1999/xlink" x="0px" y="0px"
	 viewBox="0 0 512 512" style="enable-background:new 0 0 512 512;" xml:space="preserve">
<circle style="fill:#273B7A;" cx="256" cy="256" r="256"/>
<path style="fill:#121149;" d="M263.139,511.897c135.764-3.718,245.127-113.131,248.763-248.915L364.427,115.507l-14.41,19.044
	l-29.998-29.998l-24-0.603l-24.002-24.002l-74.918,122.901l-5.675,44.534l-42.365,150.438L263.139,511.897z"/>
<path style="fill:#FF7F4F;" d="M158.727,401.177h194.546c8.638,0,15.643-7.003,15.643-15.643v-259.07
	c0-8.638-7.002-15.643-15.643-15.643H158.727c-8.638,0-15.643,7.003-15.643,15.643v259.07
	C143.084,394.174,150.087,401.177,158.727,401.177z"/>
<path style="fill:#D35933;" d="M353.273,110.823h-97.847v290.356h97.847c8.638,0,15.643-7.004,15.643-15.643V126.464
	C368.916,117.826,361.912,110.823,353.273,110.823z"/>
<rect x="158.599" y="128.431" style="fill:#FFFFFF;" width="194.801" height="251.69"/>
<rect x="255.431" y="128.431" style="fill:#D8D8D8;" width="97.975" height="251.69"/>
<path style="fill:#D0D1D3;" d="M308.703,99.125h-24.619C282.002,85.466,270.241,74.99,256,74.99
	c-14.241,0-26.002,10.476-28.084,24.135h-24.619c-8.025,0-14.529,6.504-14.529,14.529v19.209c0,8.025,6.506,14.529,14.529,14.529
	h105.405c8.025,0,14.529-6.504,14.529-14.529v-19.209C323.232,105.629,316.726,99.125,308.703,99.125z M256,99.987
	c-3.332,0-6.034-2.701-6.034-6.034s2.701-6.034,6.034-6.034s6.034,2.701,6.034,6.034S259.332,99.987,256,99.987z"/>
<path style="fill:#A6A8AA;" d="M308.703,99.125h-24.619C282.002,85.466,270.241,74.99,256,74.99c-0.193,0-0.381,0.022-0.574,0.026
	v12.96c0.191-0.017,0.378-0.057,0.574-0.057c3.332,0,6.034,2.701,6.034,6.034s-2.701,6.034-6.034,6.034
	c-0.197,0-0.383-0.04-0.574-0.059v47.466h53.277c8.025,0,14.529-6.504,14.529-14.529v-19.211
	C323.232,105.629,316.726,99.125,308.703,99.125z"/>
<g>
	<path style="fill:#FEE187;" d="M312.889,204.283H199.111c-2.857,0-5.172-2.315-5.172-5.172c0-2.857,2.315-5.172,5.172-5.172
		h113.778c2.857,0,5.172,2.315,5.172,5.172C318.061,201.968,315.745,204.283,312.889,204.283z"/>
	<path style="fill:#FEE187;" d="M312.889,232.727H199.111c-2.857,0-5.172-2.315-5.172-5.172c0-2.857,2.315-5.172,5.172-5.172
		h113.778c2.857,0,5.172,2.315,5.172,5.172C318.061,230.412,315.745,232.727,312.889,232.727z"/>
	<path style="fill:#FEE187;" d="M312.889,261.172H199.111c-2.857,0-5.172-2.315-5.172-5.172s2.315-5.172,5.172-5.172h113.778
		c2.857,0,5.172,2.315,5.172,5.172S315.745,261.172,312.889,261.172z"/>
	<path style="fill:#FEE187;" d="M312.889,289.616H199.111c-2.857,0-5.172-2.315-5.172-5.172s2.315-5.172,5.172-5.172h113.778
		c2.857,0,5.172,2.315,5.172,5.172S315.745,289.616,312.889,289.616z"/>
</g>
<g>
	<path style="fill:#FFC61B;" d="M312.889,193.939h-57.463v10.343h57.463c2.857,0,5.172-2.315,5.172-5.172
		C318.061,196.255,315.745,193.939,312.889,193.939z"/>
	<path style="fill:#FFC61B;" d="M312.889,222.384h-57.463v10.343h57.463c2.857,0,5.172-2.315,5.172-5.172
		C318.061,224.699,315.745,222.384,312.889,222.384z"/>
	<path style="fill:#FFC61B;" d="M312.889,250.828h-57.463v10.343h57.463c2.857,0,5.172-2.315,5.172-5.172
		S315.745,250.828,312.889,250.828z"/>
	<path style="fill:#FFC61B;" d="M312.889,279.273h-57.463v10.343h57.463c2.857,0,5.172-2.315,5.172-5.172
		S315.745,279.273,312.889,279.273z"/>
</g>
<g>
</g>
<g>
</g>
<g>
</g>
<g>
</g>
<g>
</g>
<g>
</g>
<g>
</g>
<g>
</g>
<g>
</g>
<g>
</g>
<g>
</g>
<g>
</g>
<g>
</g>
<g>
</g>
<g>
</g>
</svg>
