<svg height="512pt" viewBox="0 0 512 512" width="512pt" xmlns="http://www.w3.org/2000/svg"><path d="m512 256c0 141.386719-114.613281 256-256 256s-256-114.613281-256-256 114.613281-256 256-256 256 114.613281 256 256zm0 0" fill="#68fcdf"/><path d="m512 256c0 26.050781-3.890625 51.191406-11.128906 74.871094-32.011719 104.847656-129.542969 181.128906-244.871094 181.128906-104.558594 0-194.488281-62.699219-234.230469-152.550781-14-31.628907-21.769531-66.628907-21.769531-103.449219 0-46.21875 12.25-89.570312 33.679688-127 44.121093 77.070312 127.160156 129 222.320312 129s178.210938-51.929688 222.320312-129c21.429688 37.429688 33.679688 80.78125 33.679688 127zm0 0" fill="#10e2c4"/><path d="m383.230469 104.949219v373.242187l-18.230469 9.5c-33.070312 15.589844-70.019531 24.308594-109 24.308594-39.140625 0-76.21875-8.78125-109.390625-24.488281l-18.230469-9.550781v-373.011719c0-14.410157 11.679688-26.109375 26.109375-26.109375h202.632813c14.429687 0 26.109375 11.699218 26.109375 26.109375zm0 0" fill="#323b5a"/><path d="m383.230469 104.949219v373.242187l-18.230469 9.5c-33.070312 15.589844-70.019531 24.308594-109 24.308594v-433.160156h101.121094c14.429687 0 26.109375 11.699218 26.109375 26.109375zm0 0" fill="#535e89"/><path d="m365 115.160156v372.53125c-33.070312 15.589844-70.019531 24.308594-109 24.308594-39.140625 0-76.21875-8.78125-109.390625-24.488281v-372.351563c0-2.988281.902344-5.78125 2.441406-8.101562 2.621094-3.949219 7.097657-6.558594 12.210938-6.558594h189.25c4.878906.050781 9.179687 2.488281 11.796875 6.199219 1.691406 2.378906 2.691406 5.3125 2.691406 8.460937zm0 0" fill="#ebf0f3"/><path d="m365 115.160156v372.53125c-33.070312 15.589844-70.019531 24.308594-109 24.308594v-411.5h94.511719c4.878906.050781 9.179687 2.488281 11.796875 6.199219 1.691406 2.378906 2.691406 5.3125 2.691406 8.460937zm0 0" fill="#fff"/><path d="m348.878906 167.441406v293.789063c0 4.230469-3.429687 7.648437-7.660156 7.648437h-170.828125c-4.230469 0-7.652344-3.417968-7.652344-7.648437v-293.789063c0-12.8125 10.382813-23.191406 23.183594-23.191406h139.769531c12.796875 0 23.1875 10.378906 23.1875 23.191406zm0 0" fill="#323b5a"/><path d="m348.878906 167.441406v293.789063c0 4.230469-3.429687 7.648437-7.660156 7.648437h-85.21875v-324.628906h69.691406c12.796875 0 23.1875 10.378906 23.1875 23.191406zm0 0" fill="#535e89"/><path d="m325.085938 215.976562v202.207032c0 3.148437-2.550782 5.707031-5.699219 5.707031h-127.230469c-3.152344 0-5.703125-2.558594-5.703125-5.707031v-202.207032c0-9.539062 7.730469-17.269531 17.265625-17.269531h104.105469c9.53125 0 17.261719 7.730469 17.261719 17.269531zm0 0" fill="#fff"/><path d="m325.089844 215.980469v16.558593h-138.640625v-16.558593c0-9.539063 7.730469-17.269531 17.269531-17.269531h104.101562c9.539063 0 17.269532 7.730468 17.269532 17.269531zm0 0" fill="#0066e8"/><path d="m325.089844 215.980469v16.558593h-69.089844v-33.828124h51.820312c9.539063 0 17.269532 7.730468 17.269532 17.269531zm0 0" fill="#178cda"/><path d="m295.3125 284.355469c0 12.769531-6.074219 24.117187-15.488281 31.316406-6.632813 5.074219-14.921875 8.085937-23.910157 8.085937-8.988281 0-17.277343-3.011718-23.910156-8.085937-9.414062-7.199219-15.488281-18.546875-15.488281-31.316406 0-21.753907 17.640625-39.394531 39.398437-39.394531 21.753907 0 39.398438 17.640624 39.398438 39.394531zm0 0" fill="#323b5a"/><path d="m286.527344 284.355469c0 9.921875-4.71875 18.742187-12.035156 24.332031-5.152344 3.945312-11.59375 6.285156-18.578126 6.285156-6.984374 0-13.421874-2.339844-18.578124-6.285156-7.316407-5.589844-12.035157-14.410156-12.035157-24.332031 0-16.90625 13.707031-30.609375 30.613281-30.609375s30.613282 13.707031 30.613282 30.609375zm0 0" fill="#d0f6ff"/><g fill="#323b5a"><path d="m274.492188 308.6875c-5.152344 3.945312-11.59375 6.285156-18.578126 6.285156-6.984374 0-13.421874-2.339844-18.578124-6.285156 1.128906-5.773438 5.152343-10.660156 10.785156-12.808594h.84375c.160156-.617187.421875-1.207031.769531-1.75-1.625-1.050781-2.976563-2.515625-3.890625-4.296875-.492188-.964843-.914062-1.976562-1.253906-3.027343h-.601563c-2.496093 0-4.519531-2.023438-4.519531-4.515626 0-1.621093 1.1875-2.960937 2.734375-3.207031-.238281-.320312-.367187-.726562-.320313-1.144531v-.011719c1.136719-10.582031 8.980469-15.359375 16.097657-14.109375.21875.039063.4375.082032.652343.132813.066407.015625.128907.027343.191407.042969.1875.046874.375.097656.558593.148437.03125.007813.066407.019531.097657.03125.210937.058594.414062.128906.621093.203125.066407.023438.125.046875.191407.070312.179687.066407.355469.136719.53125.210938.035156.015625.070312.027344.105469.042969.207031.089843.414062.191406.621093.289062.046875.023438.089844.050781.136719.070313.195312.101562.386719.207031.582031.316406.011719.007812.027344.015625.039063.023438.21875.125.4375.261718.648437.40625.011719.003906.019531.011718.027344.015624 3.246094 2.160157 5.816406 5.921876 6.707031 11.3125.074219.4375.121094.777344.160156 1.097657.035157.308593-.023437.605469-.140624.867187 1.511718.273438 2.65625 1.597656 2.65625 3.191406 0 2.492188-2.023438 4.515626-4.519532 4.515626h-.75c-.34375 1.050781-.765625 2.0625-1.261718 3.027343-.890626 1.742188-2.203126 3.183594-3.777344 4.226563.371094.5625.640625 1.175781.8125 1.820312h.839844c5.628906 2.148438 9.65625 7.035156 10.78125 12.808594zm0 0"/><path d="m235.449219 347.679688c1.109375 0 1.964843-.855469 1.964843-2.21875v-7.023438c0-.464844.375-.839844.839844-.839844h2.839844c.464844 0 .839844.375.839844.839844v7.023438c0 3.621093-2.550782 5.972656-6.5 5.972656-3.972656 0-6.597656-2.355469-6.597656-5.972656v-7.023438c0-.464844.375-.839844.835937-.839844h2.839844c.460937 0 .835937.375.835937.839844v7.023438c0 1.34375.976563 2.21875 2.101563 2.21875zm0 0"/><path d="m249.21875 340.847656c-.507812 0-.835938.15625-.835938.566406 0 1.710938 7.0625.640626 7.0625 5.585938 0 3.035156-2.667968 4.378906-5.742187 4.378906-2.109375 0-4.4375-.632812-6.199219-1.746094-.367187-.230468-.5-.699218-.308594-1.085937l.914063-1.855469c.226563-.449218.789063-.589844 1.214844-.316406 1.402343.894531 3.269531 1.558594 4.417969 1.558594.664062 0 1.089843-.214844 1.089843-.703125 0-1.769531-7.0625-.601563-7.0625-5.390625 0-2.722656 2.296875-4.4375 5.839844-4.4375 1.847656 0 3.753906.472656 5.230469 1.21875.402344.203125.558594.699218.367187 1.105468l-.929687 1.941407c-.199219.421875-.699219.59375-1.117188.394531-1.316406-.632812-2.953125-1.214844-3.941406-1.214844zm0 0"/><path d="m268.160156 338.4375v1.746094c0 .464844-.375.839844-.835937.839844h-5.351563c-.460937 0-.835937.375-.835937.835937s.375.835937.835937.835937h4.710938c.460937 0 .835937.375.835937.839844v1.746094c0 .464844-.375.839844-.835937.839844h-4.710938c-.460937 0-.835937.375-.835937.835937v.019531c0 .460938.375.835938.835937.835938h5.527344c.460938 0 .835938.375.835938.835938v1.75c0 .464843-.375.839843-.835938.839843h-10.039062c-.464844 0-.839844-.375-.839844-.839843v-11.964844c0-.460938.375-.835938.839844-.835938h9.863281c.460937 0 .835937.375.835937.839844zm0 0"/><path d="m277.671875 350.753906-1.183594-2.566406c-.136719-.296875-.433593-.488281-.761719-.488281h-.320312c-.460938 0-.835938.375-.835938.835937v1.867188c0 .464844-.375.839844-.839843.839844h-2.839844c-.460937 0-.835937-.375-.835937-.839844v-11.964844c0-.460938.375-.835938.835937-.835938h5.761719c3.695312 0 5.820312 1.769532 5.820312 4.882813 0 1.6875-.550781 3.011719-1.578125 3.894531-.316406.273438-.40625.722656-.1875 1.082032l1.519531 2.511718c.335938.554688-.066406 1.269532-.714843 1.269532h-3.078125c-.328125 0-.625-.191407-.761719-.488282zm-3.101563-7.316406c0 .460938.375.835938.835938.835938h1.246094c.972656 0 1.539062-.601563 1.539062-1.65625 0-1.007813-.566406-1.59375-1.539062-1.59375h-1.246094c-.460938 0-.835938.375-.835938.835937zm0 0"/><path d="m211.628906 367.492188h88.570313v9.449218h-88.570313zm0 0"/><path d="m211.628906 383.742188h88.570313v9.449218h-88.570313zm0 0"/><path d="m211.628906 399.988281h88.570313v9.453125h-88.570313zm0 0"/></g></svg>